<?xml version="1.0" standalone="no"?>
<!DOCTYPE svg PUBLIC "-//W3C//DTD SVG 1.1//EN" "http://www.w3.org/Graphics/SVG/1.1/DTD/svg11.dtd">
<!--Generator: Xara Designer (www.xara.com), SVG filter version: 6.0.0.4-->
<svg stroke-width="0.501" stroke-linejoin="bevel" fill-rule="evenodd" xmlns:xlink="http://www.w3.org/1999/xlink" xmlns="http://www.w3.org/2000/svg" version="1.1" overflow="visible" width="52.5pt" height="52.5pt" viewBox="0 0 52.5 52.5">
 <defs>
	</defs>
 <g id="Document" fill="none" stroke="black" font-family="Times New Roman" font-size="16" transform="scale(1 -1)">
  <g id="Spread" transform="translate(0 -52.5)">
   <g id="Layer 1">
    <g id="Group" stroke="#6e8599">
     <path d="M 43.09,8.805 C 33.46,-0.49 18.099,-0.22 8.805,9.41 C -0.49,19.04 -0.22,34.401 9.41,43.695 C 19.04,52.99 34.401,52.72 43.695,43.09 C 52.99,33.46 52.72,18.099 43.09,8.805 Z" stroke-width="4.014" stroke-linejoin="miter" marker-start="none" marker-end="none" stroke-miterlimit="79.8403193612775"/>
     <path d="M 26.014,44.868 L 26.014,43.079" fill="none" stroke-width="1.974" stroke-linecap="round" stroke-linejoin="round" stroke-miterlimit="79.8403193612775"/>
     <path d="M 26.016,10.055 L 26.016,8.264" fill="none" stroke-width="1.974" stroke-linecap="round" stroke-linejoin="round" stroke-miterlimit="79.8403193612775"/>
     <path d="M 9.507,26.752 L 7.717,26.752" fill="none" stroke-width="1.974" stroke-linecap="round" stroke-linejoin="round" stroke-miterlimit="79.8403193612775"/>
     <path d="M 44.427,26.752 L 42.637,26.752" fill="none" stroke-width="1.974" stroke-linecap="round" stroke-linejoin="round" stroke-miterlimit="79.8403193612775"/>
     <path d="M 39.364,39.332 L 38.099,38.067" fill="none" stroke-width="1.974" stroke-linecap="round" stroke-linejoin="round" stroke-miterlimit="79.8403193612775"/>
     <path d="M 14.717,14.966 L 13.453,13.701" fill="none" stroke-width="1.974" stroke-linecap="round" stroke-linejoin="round" stroke-miterlimit="79.8403193612775"/>
     <path d="M 13.451,39.332 L 14.715,38.067" fill="none" stroke-width="1.974" stroke-linecap="round" stroke-linejoin="round" stroke-miterlimit="79.8403193612775"/>
     <path d="M 38.097,14.966 L 39.361,13.701" fill="none" stroke-width="1.974" stroke-linecap="round" stroke-linejoin="round" stroke-miterlimit="79.8403193612775"/>
     <path d="M 27.395,24.658 C 26.241,23.896 24.683,24.217 23.921,25.372 C 23.159,26.527 23.48,28.085 24.635,28.847 C 25.79,29.609 27.348,29.287 28.109,28.133 C 28.871,26.978 28.55,25.42 27.395,24.658 Z" stroke-width="1.974" stroke-linejoin="miter" marker-start="none" marker-end="none" stroke-miterlimit="79.8403193612775"/>
     <path d="M 25.945,29.333 L 25.945,38.223" fill="none" stroke-width="1.974" stroke-linecap="round" stroke-linejoin="miter" stroke-miterlimit="79.8403193612775"/>
     <path d="M 22.969,26.752 L 17.731,26.752" fill="none" stroke-width="1.974" stroke-linejoin="miter" stroke-linecap="round" stroke-miterlimit="79.8403193612775"/>
    </g>
   </g>
  </g>
 </g>
</svg>
