<?xml version="1.0" standalone="no"?>
<!DOCTYPE svg PUBLIC "-//W3C//DTD SVG 1.1//EN" "http://www.w3.org/Graphics/SVG/1.1/DTD/svg11.dtd">
<!--Generator: Xara Designer (www.xara.com), SVG filter version: 6.0.0.4-->
<svg stroke-width="0.501" stroke-linejoin="bevel" fill-rule="evenodd" xmlns:xlink="http://www.w3.org/1999/xlink" xmlns="http://www.w3.org/2000/svg" version="1.1" overflow="visible" width="52.5pt" height="52.5pt" viewBox="0 0 52.5 52.5">
 <defs>
  <linearGradient id="LinearGradient" gradientUnits="userSpaceOnUse" x1="0" y1="0" x2="5.118" y2="0" gradientTransform="translate(29.671 35.765) rotate(180) skewX(90)">
   <stop offset="0" stop-color="#292d38"/>
   <stop offset="1" stop-color="#404040"/>
  </linearGradient>
  <linearGradient id="LinearGradient_1" gradientUnits="userSpaceOnUse" x1="0" y1="0" x2="0" y2="0" gradientTransform="translate(26.081 40.453)">
   <stop offset="0" stop-color="#292d38"/>
   <stop offset="1" stop-color="#404040"/>
  </linearGradient>
  <linearGradient id="LinearGradient_2" gradientUnits="userSpaceOnUse" x1="0" y1="0" x2="0" y2="0" gradientTransform="translate(26.083 16.452)">
   <stop offset="0" stop-color="#292d38"/>
   <stop offset="1" stop-color="#404040"/>
  </linearGradient>
 </defs>
 <g id="Document" fill="none" stroke="black" font-family="Times New Roman" font-size="16" transform="scale(1 -1)">
  <g id="Spread" transform="translate(0 -52.5)">
   <g id="Layer 1">
    <g id="Group" stroke="#6e8599">
     <path d="M 30.823,35.765 L 23.658,35.765 C 18.239,35.043 18.601,26.733 24.02,26.252 L 28.234,26.252 C 34.074,26.252 34.013,16.739 28.234,16.798 L 21.069,16.798" fill="none" stroke-width="1.974" stroke-linecap="round" stroke-linejoin="round" stroke-miterlimit="79.8403193612775"/>
     <path d="M 26.081,40.799 L 26.083,35.765" fill="none" stroke-width="1.974" stroke-linecap="round" stroke-linejoin="round" stroke-miterlimit="79.8403193612775"/>
     <path d="M 26.083,16.798 L 26.085,11.763" fill="none" stroke-width="1.974" stroke-linecap="round" stroke-linejoin="round" stroke-miterlimit="79.8403193612775"/>
     <path d="M 43.09,8.805 C 33.459,-0.49 18.097,-0.22 8.802,9.41 C -0.493,19.041 -0.223,34.403 9.407,43.698 C 19.038,52.993 34.4,52.723 43.695,43.093 C 52.99,33.462 52.72,18.1 43.09,8.805 Z" stroke-width="4.014" stroke-linejoin="miter" marker-start="none" marker-end="none" stroke-miterlimit="79.8403193612775"/>
    </g>
   </g>
  </g>
 </g>
</svg>
