<?xml version="1.0" standalone="no"?>
<!DOCTYPE svg PUBLIC "-//W3C//DTD SVG 1.1//EN" "http://www.w3.org/Graphics/SVG/1.1/DTD/svg11.dtd">
<!--Generator: Xara Designer (www.xara.com), SVG filter version: 6.0.0.4-->
<svg stroke-width="0.501" stroke-linejoin="bevel" fill-rule="evenodd" xmlns:xlink="http://www.w3.org/1999/xlink" xmlns="http://www.w3.org/2000/svg" version="1.1" overflow="visible" width="52.5pt" height="52.5pt" viewBox="0 0 52.5 52.5">
 <defs>
	</defs>
 <g id="Document" fill="none" stroke="black" font-family="Times New Roman" font-size="16" transform="scale(1 -1)">
  <g id="Spread" transform="translate(0 -52.5)">
   <g id="Layer 1">
    <g id="Group">
     <path d="M 43.09,8.805 C 33.46,-0.49 18.099,-0.22 8.805,9.41 C -0.49,19.04 -0.22,34.401 9.41,43.695 C 19.04,52.99 34.401,52.72 43.695,43.09 C 52.99,33.46 52.72,18.099 43.09,8.805 Z" stroke="#6e8599" stroke-width="4.014" stroke-linejoin="miter" marker-start="none" marker-end="none" stroke-miterlimit="79.8403193612775"/>
     <g id="Group_1" stroke-width="0.543" stroke-miterlimit="79.8403193612775">
      <path d="M 26.226,8.461 L 7.914,30.177 L 21.017,25.4 L 26.25,44.14 L 31.483,25.4 L 44.586,30.177 L 26.226,8.461 Z" stroke="#6e8599" stroke-linecap="square" marker-start="none" marker-end="none"/>
      <path d="M 26.23,16.954 L 26.25,44.14 L 20.812,25.315 L 26.23,16.954 Z" stroke="none" stroke-linecap="square" fill="#6e8599" marker-start="none" marker-end="none"/>
      <path d="M 25.877,16.824 L 31.225,25.339 L 44.625,30.174 L 25.877,16.824 Z" stroke="none" fill="#6e8599" marker-start="none" marker-end="none"/>
      <path d="M 26.226,17.109 L 7.914,30.177 L 26.226,8.585 L 26.226,17.109 Z" stroke="none" fill="#6e8599" stroke-linecap="square" marker-start="none" marker-end="none"/>
     </g>
    </g>
   </g>
  </g>
 </g>
</svg>
