<?xml version="1.0" standalone="no"?>
<!DOCTYPE svg PUBLIC "-//W3C//DTD SVG 1.1//EN" "http://www.w3.org/Graphics/SVG/1.1/DTD/svg11.dtd">
<!--Generator: Xara Designer (www.xara.com), SVG filter version: 6.0.0.4-->
<svg stroke-width="0.501" stroke-linejoin="bevel" fill-rule="evenodd" xmlns:xlink="http://www.w3.org/1999/xlink" xmlns="http://www.w3.org/2000/svg" version="1.1" overflow="visible" width="52.5pt" height="52.5pt" viewBox="0 0 52.5 52.5">
 <defs>
	</defs>
 <g id="Document" fill="none" stroke="black" font-family="Times New Roman" font-size="16" transform="scale(1 -1)">
  <g id="Spread" transform="translate(0 -52.5)">
   <g id="Layer 1">
    <g id="Group">
     <path d="M 23.066,23.14 L 23.061,26.452 C 23.063,27.556 23.534,28.569 24.999,28.584 C 27.039,28.55 27.8,27.66 27.775,25.715 C 27.752,24.107 26.916,22.605 24.767,22.463 C 21.995,22.441 19.768,23.636 19.749,26.679 C 19.747,29.863 22.119,32.024 24.953,32.079 C 28.973,32.083 32.189,29.19 32.172,25.345 C 32.177,21.276 28.614,17.001 24.536,17.015 C 18.593,16.48 13.106,21.504 12.875,26.595 C 12.69,35.387 18.924,40.661 25.878,40.94 C 33.561,41.171 42.584,35.11 42.862,24.188 C 42.977,11.648 32.425,3.225 22.494,3.327" fill="none" stroke-linecap="square" stroke="#6e8599" stroke-width="1.975" stroke-linejoin="round" stroke-miterlimit="79.8403193612775"/>
     <path d="M 12.711,44.783 L 12.597,6.179" fill="none" stroke="#6e8599" stroke-linecap="round" stroke-linejoin="round" stroke-width="1.975" stroke-miterlimit="79.8403193612775"/>
     <path d="M 42.862,44.785 L 42.749,7.796" fill="none" stroke="#6e8599" stroke-linecap="round" stroke-linejoin="round" stroke-width="1.975" stroke-miterlimit="79.8403193612775"/>
     <path d="M 32.355,38.896 L 32.242,16.816" fill="none" stroke="#6e8599" stroke-linecap="round" stroke-linejoin="round" stroke-width="1.975" stroke-miterlimit="79.8403193612775"/>
     <path d="M 13.399,32.175 L 31.679,32.062" fill="none" stroke="#6e8599" stroke-linecap="round" stroke-linejoin="round" stroke-width="1.975" stroke-miterlimit="79.8403193612775"/>
     <path d="M 13.404,16.568 L 40.772,16.455" fill="none" stroke="#6e8599" stroke-linecap="round" stroke-linejoin="round" stroke-width="1.975" stroke-miterlimit="79.8403193612775"/>
     <path d="M 43.092,8.803 C 33.461,-0.493 18.098,-0.223 8.803,9.408 C -0.493,19.039 -0.223,34.402 9.408,43.697 C 19.039,52.993 34.402,52.723 43.697,43.092 C 52.993,33.461 52.723,18.098 43.092,8.803 Z" stroke-linejoin="miter" stroke="#6e8599" stroke-width="4.014" marker-start="none" marker-end="none" stroke-miterlimit="79.8403193612775"/>
    </g>
   </g>
  </g>
 </g>
</svg>
