<?xml version="1.0" standalone="no"?>
<!DOCTYPE svg PUBLIC "-//W3C//DTD SVG 1.1//EN" "http://www.w3.org/Graphics/SVG/1.1/DTD/svg11.dtd">
<!--Generator: Xara Designer (www.xara.com), SVG filter version: 6.0.0.4-->
<svg stroke-width="0.501" stroke-linejoin="bevel" fill-rule="evenodd" xmlns:xlink="http://www.w3.org/1999/xlink" xmlns="http://www.w3.org/2000/svg" version="1.1" overflow="visible" width="93pt" height="17.25pt" viewBox="0 0 93 17.25">
 <defs>
	</defs>
 <g id="Document" fill="none" stroke="black" font-family="Times New Roman" font-size="16" transform="scale(1 -1)">
  <g id="Spread" transform="translate(0 -17.25)">
   <g id="Layer 1">
    <g id="Group" stroke-linecap="round" stroke="none">
     <g id="Group_1">
      <g id="Group_2" fill-rule="nonzero" stroke-linejoin="round" stroke-width="0.344" fill="#4c4c4c" stroke-miterlimit="79.8403193612775">
       <path d="M 23.843,0.04 L 23.843,17.249 L 29.555,17.249 C 29.852,17.249 30.143,17.236 30.429,17.209 C 32.431,17.023 34.158,16.194 35.616,14.718 C 37.298,13.035 38.139,11.009 38.139,8.646 C 38.139,6.265 37.298,4.239 35.616,2.57 C 33.951,0.882 31.929,0.04 29.555,0.04 L 23.843,0.04 Z M 33.589,4.572 C 34.712,5.715 35.272,7.069 35.272,8.641 C 35.272,10.211 34.712,11.559 33.589,12.682 C 32.468,13.808 31.123,14.368 29.555,14.368 L 26.684,14.368 L 26.684,2.914 L 29.555,2.914 C 31.123,2.914 32.468,3.466 33.589,4.572 Z" marker-start="none" marker-end="none"/>
       <path d="M -0.015,0.04 L 6.963,14.026 L 8.568,10.819 L 6.047,5.771 L 11.093,5.771 L 12.521,2.92 L 4.637,2.92 L 3.179,0.04 L -0.015,0.04 Z" marker-start="none" marker-end="none"/>
       <path d="M 43.091,14.368 L 43.091,17.249 L 54.518,17.249 L 54.518,14.368 L 45.934,14.368 L 45.934,14.368 L 43.091,14.368 Z" marker-start="none" marker-end="none"/>
       <path d="M 43.091,7.202 L 43.091,10.058 L 45.934,10.058 L 45.934,10.056 L 54.518,10.056 L 54.518,7.208 L 45.934,7.208 L 45.934,7.202 L 43.091,7.202 Z" marker-start="none" marker-end="none"/>
       <path d="M 78.72,0.04 L 78.72,2.914 L 87.995,2.914 C 88.295,2.914 88.575,2.966 88.84,3.076 C 89.103,3.181 89.332,3.331 89.531,3.523 C 89.727,3.711 89.881,3.94 89.988,4.203 C 90.097,4.467 90.152,4.751 90.152,5.046 C 90.152,5.628 89.934,6.133 89.507,6.564 C 89.094,6.994 88.59,7.208 87.995,7.208 L 83.717,7.208 C 82.333,7.208 81.151,7.696 80.178,8.672 C 79.206,9.646 78.72,10.836 78.72,12.243 C 78.72,13.612 79.206,14.787 80.178,15.762 C 81.135,16.753 82.313,17.249 83.716,17.249 L 93.015,17.249 L 93.015,14.368 L 83.713,14.368 C 83.416,14.368 83.136,14.316 82.872,14.209 C 82.608,14.1 82.378,13.95 82.179,13.749 C 81.983,13.551 81.83,13.32 81.723,13.056 C 81.614,12.79 81.562,12.518 81.56,12.239 C 81.562,11.643 81.767,11.132 82.179,10.7 C 82.592,10.271 83.101,10.056 83.713,10.056 L 87.994,10.056 C 89.378,10.056 90.559,9.569 91.532,8.593 C 92.52,7.619 93.015,6.435 93.015,5.047 C 93.015,3.675 92.52,2.494 91.533,1.504 C 90.559,0.528 89.378,0.04 87.995,0.04 L 78.72,0.04 Z" marker-start="none" marker-end="none"/>
       <path d="M 59.468,0.04 L 59.468,2.914 L 68.747,2.914 C 69.045,2.914 69.325,2.966 69.588,3.076 C 69.851,3.181 70.083,3.331 70.282,3.523 C 70.478,3.711 70.633,3.94 70.74,4.203 C 70.845,4.467 70.9,4.751 70.9,5.046 C 70.9,5.628 70.686,6.133 70.255,6.564 C 69.843,6.994 69.339,7.208 68.747,7.208 L 64.467,7.208 C 63.082,7.208 61.903,7.696 60.929,8.672 C 59.955,9.646 59.468,10.836 59.468,12.243 C 59.468,13.612 59.955,14.787 60.929,15.762 C 61.885,16.753 63.064,17.249 64.464,17.249 L 73.764,17.249 L 73.764,14.368 L 64.464,14.368 C 64.168,14.368 63.886,14.316 63.622,14.209 C 63.357,14.1 63.126,13.95 62.93,13.749 C 62.733,13.551 62.579,13.32 62.472,13.056 C 62.366,12.79 62.311,12.518 62.31,12.239 C 62.311,11.643 62.518,11.132 62.93,10.7 C 63.343,10.271 63.854,10.056 64.464,10.056 L 68.743,10.056 C 70.129,10.056 71.307,9.569 72.28,8.593 C 73.272,7.619 73.764,6.435 73.764,5.047 C 73.764,3.675 73.272,2.494 72.284,1.504 C 71.308,0.528 70.13,0.04 68.744,0.04 L 59.468,0.04 Z" marker-start="none" marker-end="none"/>
       <path d="M 43.091,0.04 L 43.091,2.91 L 49.031,2.91 L 49.031,2.914 L 54.518,2.914 L 54.518,0.04 L 43.091,0.04 Z" marker-start="none" marker-end="none"/>
      </g>
      <path d="M 10.286,13.812 L 8.571,17.249 L 6.963,14.026 L 6.961,14.029 L 8.571,17.25 L 10.286,13.812 Z" fill="#ffffff" stroke-width="0.723" stroke-linejoin="miter" marker-start="none" marker-end="none" stroke-miterlimit="79.8403193612775"/>
      <path d="M 10.29,7.376 L 8.568,10.819 L 8.571,10.825 L 10.29,7.376 Z" fill="#ffffff" stroke-width="0.723" stroke-linejoin="miter" marker-start="none" marker-end="none" stroke-miterlimit="79.8403193612775"/>
      <path d="M 13.962,0.04 L 12.521,2.92 L 12.527,2.92 L 13.961,0.04 L 17.15,0.04 L 17.15,0.04 L 13.962,0.04 Z" fill="#ffffff" stroke-width="0.723" stroke-linejoin="miter" marker-start="none" marker-end="none" stroke-miterlimit="79.8403193612775"/>
     </g>
     <path d="M 11.931,17.25 L 20.51,0.04 L 17.15,0.04 L 8.581,17.243 L 11.931,17.25 Z" fill="#6e8599" stroke-width="0.241" stroke-linejoin="miter" marker-start="none" marker-end="none" stroke-miterlimit="79.8403193612775"/>
     <g id="Group_3" fill-rule="nonzero" stroke-linejoin="round" stroke-width="0.344" fill="#999999" stroke-miterlimit="79.8403193612775">
      <g id="Group_4">
       <path d="M 29.271,0.04 L 29.271,2.914 L 29.322,2.914 L 29.322,0.04 L 29.271,0.04 Z M 1.768,0.04 L 1.768,3.608 L 1.816,3.711 L 1.816,0.04 L 1.768,0.04 Z M 10.936,2.92 L 10.936,4.133 L 2.029,4.133 L 2.052,4.184 L 10.936,4.184 L 10.936,5.771 L 10.987,5.771 L 10.987,4.184 L 11.888,4.184 L 11.914,4.133 L 10.987,4.133 L 10.987,2.92 L 10.936,2.92 Z M 23.844,4.133 L 23.844,4.184 L 26.686,4.184 L 26.686,4.133 L 23.844,4.133 Z M 33.16,4.184 L 36.912,4.184 C 36.902,4.166 36.893,4.152 36.881,4.133 L 33.097,4.133 C 33.118,4.15 33.139,4.166 33.16,4.184 Z M 23.844,13.349 L 23.844,13.4 L 26.686,13.4 L 26.686,13.349 L 23.844,13.349 Z M 32.737,13.4 L 36.712,13.4 C 36.726,13.385 36.736,13.365 36.748,13.349 L 32.807,13.349 C 32.785,13.365 32.76,13.385 32.737,13.4 Z M 29.271,14.368 L 29.271,17.249 L 29.322,17.249 L 29.322,14.368 L 29.271,14.368 Z" marker-start="none" marker-end="none"/>
       <path d="M 84.282,0.04 L 84.282,2.914 L 84.331,2.914 L 84.331,0.04 L 84.282,0.04 Z M 89.983,4.184 L 92.948,4.184 C 92.945,4.166 92.943,4.152 92.939,4.133 L 89.96,4.133 C 89.968,4.152 89.975,4.166 89.983,4.184 Z M 84.282,7.208 L 84.282,10.056 L 84.331,10.056 L 84.331,7.208 L 84.282,7.208 Z M 78.848,13.4 L 81.9,13.4 C 81.889,13.385 81.879,13.366 81.871,13.349 L 78.834,13.349 C 78.837,13.365 78.842,13.382 78.848,13.4 Z M 84.282,14.368 L 84.282,17.249 L 84.331,17.249 L 84.331,14.368 L 84.282,14.368 Z" marker-start="none" marker-end="none"/>
       <path d="M 65.946,0.04 L 65.946,2.914 L 65.995,2.914 L 65.995,0.04 L 65.946,0.04 Z M 70.733,4.184 L 73.696,4.184 C 73.693,4.166 73.692,4.152 73.689,4.133 L 70.71,4.133 C 70.719,4.152 70.724,4.166 70.733,4.184 Z M 65.946,7.208 L 65.946,10.056 L 65.995,10.056 L 65.995,7.208 L 65.946,7.208 Z M 59.596,13.4 L 62.649,13.4 C 62.639,13.385 62.632,13.366 62.619,13.349 L 59.584,13.349 C 59.589,13.365 59.59,13.382 59.596,13.4 Z M 65.946,14.368 L 65.946,17.249 L 65.995,17.249 L 65.995,14.368 L 65.946,14.368 Z" marker-start="none" marker-end="none"/>
       <path d="M 47.609,14.368 L 47.609,17.249 L 47.656,17.249 L 47.656,14.368 L 47.609,14.368 Z" marker-start="none" marker-end="none"/>
       <path d="M 47.609,0.04 L 47.609,2.91 L 47.656,2.91 L 47.656,0.04 L 47.609,0.04 Z M 47.609,7.208 L 47.609,10.056 L 47.656,10.056 L 47.656,7.208 L 47.609,7.208 Z" marker-start="none" marker-end="none"/>
      </g>
     </g>
     <g id="Group_5" fill-rule="nonzero" stroke-linejoin="round" stroke-width="0.125" fill="#7f7f7f" stroke-miterlimit="79.8403193612775">
      <g id="Group_6">
       <path d="M 29.219,0.041 L 29.219,2.918 L 29.429,2.918 L 29.429,0.041 L 29.219,0.041 Z M 23.852,4.009 L 23.852,4.216 L 26.695,4.216 L 26.695,4.009 L 23.852,4.009 Z M 33.206,4.216 L 36.943,4.216 C 36.898,4.145 36.855,4.077 36.808,4.009 L 32.94,4.009 C 33.031,4.074 33.119,4.144 33.206,4.216 Z M 23.852,13.252 L 23.852,13.462 L 26.695,13.462 L 26.695,13.252 L 23.852,13.252 Z M 32.661,13.462 L 36.683,13.462 C 36.731,13.391 36.778,13.323 36.823,13.252 L 32.953,13.252 C 32.857,13.324 32.759,13.395 32.661,13.462 Z M 29.219,14.37 L 29.219,17.25 L 29.429,17.25 L 29.429,14.37 L 29.219,14.37 Z" marker-start="none" marker-end="none"/>
       <path d="M 1.708,0.041 L 1.708,3.473 L 1.915,3.892 L 1.915,0.041 L 1.708,0.041 Z M 10.88,2.923 L 10.88,4.009 L 1.973,4.009 L 2.08,4.216 L 10.88,4.216 L 10.88,5.772 L 11.088,5.772 L 11.088,4.216 L 11.882,4.216 L 11.984,4.009 L 11.088,4.009 L 11.088,2.923 L 10.88,2.923 Z M 6.584,13.252 L 6.69,13.462 L 7.255,13.462 L 7.361,13.252 L 6.584,13.252 Z" marker-start="none" marker-end="none"/>
       <path d="M 47.558,14.37 L 47.558,17.25 L 47.771,17.25 L 47.771,14.37 L 47.558,14.37 Z" marker-start="none" marker-end="none"/>
       <path d="M 47.558,7.211 L 47.558,10.058 L 47.771,10.058 L 47.771,7.211 L 47.558,7.211 Z" marker-start="none" marker-end="none"/>
       <path d="M 84.239,0.041 L 84.239,2.918 L 84.455,2.918 L 84.455,0.041 L 84.239,0.041 Z M 90.001,4.204 C 90.001,4.207 90.004,4.212 90.004,4.216 L 92.961,4.216 C 92.952,4.145 92.937,4.077 92.923,4.009 L 89.907,4.009 C 89.94,4.071 89.972,4.138 90.001,4.204 Z M 84.239,7.211 L 84.239,10.058 L 84.455,10.058 L 84.455,7.211 L 84.239,7.211 Z M 78.871,13.462 L 81.948,13.462 C 81.901,13.392 81.86,13.323 81.822,13.252 L 78.824,13.252 C 78.836,13.323 78.851,13.391 78.871,13.462 Z M 84.239,14.37 L 84.239,17.25 L 84.455,17.25 L 84.455,14.37 L 84.239,14.37 Z" marker-start="none" marker-end="none"/>
       <path d="M 65.9,0.041 L 65.9,2.918 L 66.112,2.918 L 66.112,0.041 L 65.9,0.041 Z M 70.749,4.204 C 70.75,4.207 70.752,4.212 70.754,4.216 L 73.71,4.216 C 73.7,4.145 73.685,4.077 73.674,4.009 L 70.657,4.009 C 70.691,4.071 70.721,4.138 70.749,4.204 Z M 65.9,7.211 L 65.9,10.058 L 66.112,10.058 L 66.112,7.211 L 65.9,7.211 Z M 59.619,13.462 L 62.699,13.462 C 62.652,13.392 62.611,13.323 62.574,13.252 L 59.575,13.252 C 59.588,13.323 59.601,13.391 59.619,13.462 Z M 65.9,14.37 L 65.9,17.25 L 66.112,17.25 L 66.112,14.37 L 65.9,14.37 Z" marker-start="none" marker-end="none"/>
       <path d="M 47.558,0.041 L 47.558,2.914 L 47.771,2.914 L 47.771,0.041 L 47.558,0.041 Z" marker-start="none" marker-end="none"/>
      </g>
     </g>
    </g>
   </g>
  </g>
 </g>
</svg>
