<?xml version="1.0" standalone="no"?>
<!DOCTYPE svg PUBLIC "-//W3C//DTD SVG 1.1//EN" "http://www.w3.org/Graphics/SVG/1.1/DTD/svg11.dtd">
<!--Generator: Xara Designer (www.xara.com), SVG filter version: 6.0.0.4-->
<svg stroke-width="0.501" stroke-linejoin="bevel" fill-rule="evenodd" xmlns:xlink="http://www.w3.org/1999/xlink" xmlns="http://www.w3.org/2000/svg" version="1.1" overflow="visible" width="26.079pt" height="26.079pt" viewBox="0 0 26.079 26.079">
 <defs>
  <linearGradient id="LinearGradient" gradientUnits="userSpaceOnUse" x1="0" y1="0" x2="2.55" y2="0" gradientTransform="translate(14.744 17.779) rotate(180) skewX(90)">
   <stop offset="0" stop-color="#292d38"/>
   <stop offset="1" stop-color="#404040"/>
  </linearGradient>
  <linearGradient id="LinearGradient_1" gradientUnits="userSpaceOnUse" x1="0" y1="0" x2="0" y2="0" gradientTransform="translate(12.955 20.115)">
   <stop offset="0" stop-color="#292d38"/>
   <stop offset="1" stop-color="#404040"/>
  </linearGradient>
  <linearGradient id="LinearGradient_2" gradientUnits="userSpaceOnUse" x1="0" y1="0" x2="0" y2="0" gradientTransform="translate(12.956 8.156)">
   <stop offset="0" stop-color="#292d38"/>
   <stop offset="1" stop-color="#404040"/>
  </linearGradient>
 </defs>
 <g id="Document" fill="none" stroke="black" font-family="Times New Roman" font-size="16" transform="scale(1 -1)">
  <g id="Spread" transform="translate(0 -26.079)">
   <g id="Page background"/>
   <g id="text">
    <path d="M 15.318,17.779 L 11.748,17.779 C 9.048,17.419 9.228,13.279 11.928,13.039 L 14.028,13.039 C 16.938,13.039 16.908,8.299 14.028,8.328 L 10.458,8.328" fill="none" stroke="#6e8599" stroke-width="2" stroke-linecap="round" stroke-linejoin="round" stroke-miterlimit="79.8403193612775"/>
    <path d="M 12.955,20.287 L 12.956,17.779" fill="none" stroke="#6e8599" stroke-width="2" stroke-linecap="round" stroke-linejoin="round" stroke-miterlimit="79.8403193612775"/>
    <path d="M 12.956,8.328 L 12.957,5.82" fill="none" stroke="#6e8599" stroke-width="2" stroke-linecap="round" stroke-linejoin="round" stroke-miterlimit="79.8403193612775"/>
    <path d="M 21.43,4.346 C 16.632,-0.285 8.978,-0.15 4.346,4.648 C -0.285,9.446 -0.15,17.1 4.648,21.732 C 9.446,26.363 17.1,26.228 21.732,21.43 C 26.363,16.632 26.228,8.978 21.43,4.346 Z" stroke="#6e8599" stroke-width="2" stroke-linejoin="miter" marker-start="none" marker-end="none" stroke-miterlimit="79.8403193612775"/>
   </g>
  </g>
 </g>
</svg>
