<?xml version="1.0" standalone="no"?>
<!DOCTYPE svg PUBLIC "-//W3C//DTD SVG 1.1//EN" "http://www.w3.org/Graphics/SVG/1.1/DTD/svg11.dtd">
<!--Generator: Xara Designer (www.xara.com), SVG filter version: 6.0.0.4-->
<svg stroke-width="0.501" stroke-linejoin="bevel" fill-rule="evenodd" xmlns:xlink="http://www.w3.org/1999/xlink" xmlns="http://www.w3.org/2000/svg" version="1.1" overflow="visible" width="26.079pt" height="26.079pt" viewBox="0 0 26.079 26.079">
 <defs>
	</defs>
 <g id="Document" fill="none" stroke="black" font-family="Times New Roman" font-size="16" transform="scale(1 -1)">
  <g id="Spread" transform="translate(0 -26.079)">
   <g id="Page background"/>
   <g id="text">
    <path d="M 21.43,4.346 C 16.632,-0.285 8.978,-0.15 4.346,4.648 C -0.285,9.446 -0.15,17.1 4.648,21.732 C 9.446,26.363 17.1,26.228 21.732,21.43 C 26.363,16.632 26.228,8.978 21.43,4.346 Z" stroke="#6e8599" stroke-width="2" stroke-linejoin="miter" marker-start="none" marker-end="none" stroke-miterlimit="79.8403193612775"/>
    <path d="M 12.921,22.316 L 12.921,21.424" fill="none" stroke="#6e8599" stroke-width="2" stroke-linecap="round" stroke-linejoin="round" stroke-miterlimit="79.8403193612775"/>
    <path d="M 12.922,4.969 L 12.922,4.077" fill="none" stroke="#6e8599" stroke-width="2" stroke-linecap="round" stroke-linejoin="round" stroke-miterlimit="79.8403193612775"/>
    <path d="M 4.696,13.289 L 3.804,13.289" fill="none" stroke="#6e8599" stroke-width="2" stroke-linecap="round" stroke-linejoin="round" stroke-miterlimit="79.8403193612775"/>
    <path d="M 22.096,13.289 L 21.204,13.289" fill="none" stroke="#6e8599" stroke-width="2" stroke-linecap="round" stroke-linejoin="round" stroke-miterlimit="79.8403193612775"/>
    <path d="M 19.573,19.557 L 18.943,18.927" fill="none" stroke="#6e8599" stroke-width="2" stroke-linecap="round" stroke-linejoin="round" stroke-miterlimit="79.8403193612775"/>
    <path d="M 7.292,7.416 L 6.662,6.786" fill="none" stroke="#6e8599" stroke-width="2" stroke-linecap="round" stroke-linejoin="round" stroke-miterlimit="79.8403193612775"/>
    <path d="M 6.661,19.557 L 7.291,18.927" fill="none" stroke="#6e8599" stroke-width="2" stroke-linecap="round" stroke-linejoin="round" stroke-miterlimit="79.8403193612775"/>
    <path d="M 18.942,7.416 L 19.572,6.786" fill="none" stroke="#6e8599" stroke-width="2" stroke-linecap="round" stroke-linejoin="round" stroke-miterlimit="79.8403193612775"/>
    <path d="M 13.731,11.833 C 13.054,11.387 12.141,11.575 11.694,12.252 C 11.248,12.929 11.436,13.842 12.113,14.289 C 12.79,14.735 13.703,14.547 14.15,13.87 C 14.596,13.193 14.408,12.28 13.731,11.833 Z" stroke="#6e8599" stroke-width="1.751" stroke-linejoin="miter" marker-start="none" marker-end="none" stroke-miterlimit="79.8403193612775"/>
    <path d="M 12.887,15.239 L 12.887,19.009" fill="none" stroke="#6e8599" stroke-width="2" stroke-linecap="round" stroke-linejoin="miter" stroke-miterlimit="79.8403193612775"/>
    <path d="M 10.853,13.289 L 8.792,13.289" fill="none" stroke="#6e8599" stroke-width="2" stroke-linejoin="miter" stroke-linecap="round" stroke-miterlimit="79.8403193612775"/>
   </g>
  </g>
 </g>
</svg>
