<?xml version="1.0" standalone="no"?>
<!DOCTYPE svg PUBLIC "-//W3C//DTD SVG 1.1//EN" "http://www.w3.org/Graphics/SVG/1.1/DTD/svg11.dtd">
<!--Generator: Xara Designer (www.xara.com), SVG filter version: 6.3.0.4-->
<svg stroke-width="0.501" stroke-linejoin="bevel" fill-rule="evenodd" xmlns:xlink="http://www.w3.org/1999/xlink" xmlns="http://www.w3.org/2000/svg" version="1.1" overflow="visible" width="52.5pt" height="52.5pt" viewBox="0 0 52.5 52.5">
 <defs>
	</defs>
 <g id="Document" fill="none" stroke="black" font-family="Times New Roman" font-size="16" transform="scale(1 -1)">
  <g id="Spread" transform="translate(0 -52.5)">
   <g id="Layer 1">
    <g id="Group" stroke="#6e8599">
     <path d="M 43.091,8.803 C 33.461,-0.492 18.099,-0.222 8.803,9.409 C -0.492,19.039 -0.222,34.401 9.409,43.697 C 19.039,52.992 34.401,52.722 43.697,43.091 C 52.992,33.461 52.722,18.099 43.091,8.803 Z" stroke-width="4.014" stroke-linejoin="miter" marker-start="none" marker-end="none" stroke-miterlimit="79.8403193612775"/>
     <path d="M 26.014,44.87 L 26.014,43.08" fill="none" stroke-width="1.974" stroke-linecap="round" stroke-linejoin="round" stroke-miterlimit="79.8403193612775"/>
     <path d="M 26.016,10.053 L 26.016,8.263" fill="none" stroke-width="1.974" stroke-linecap="round" stroke-linejoin="round" stroke-miterlimit="79.8403193612775"/>
     <path d="M 9.506,26.752 L 7.715,26.752" fill="none" stroke-width="1.974" stroke-linecap="round" stroke-linejoin="round" stroke-miterlimit="79.8403193612775"/>
     <path d="M 44.428,26.752 L 42.638,26.752" fill="none" stroke-width="1.974" stroke-linecap="round" stroke-linejoin="round" stroke-miterlimit="79.8403193612775"/>
     <path d="M 39.365,39.333 L 38.1,38.068" fill="none" stroke-width="1.974" stroke-linecap="round" stroke-linejoin="round" stroke-miterlimit="79.8403193612775"/>
     <path d="M 14.716,14.965 L 13.452,13.7" fill="none" stroke-width="1.974" stroke-linecap="round" stroke-linejoin="round" stroke-miterlimit="79.8403193612775"/>
     <path d="M 13.45,39.333 L 14.714,38.068" fill="none" stroke-width="1.974" stroke-linecap="round" stroke-linejoin="round" stroke-miterlimit="79.8403193612775"/>
     <path d="M 38.098,14.965 L 39.362,13.7" fill="none" stroke-width="1.974" stroke-linecap="round" stroke-linejoin="round" stroke-miterlimit="79.8403193612775"/>
     <path d="M 27.396,24.658 C 26.241,23.896 24.682,24.217 23.921,25.372 C 23.159,26.527 23.48,28.085 24.635,28.847 C 25.79,29.609 27.348,29.288 28.11,28.133 C 28.872,26.978 28.55,25.42 27.396,24.658 Z" stroke-width="1.974" stroke-linejoin="miter" marker-start="none" marker-end="none" stroke-miterlimit="79.8403193612775"/>
     <path d="M 25.945,29.333 L 25.945,38.224" fill="none" stroke-width="1.974" stroke-linecap="round" stroke-linejoin="miter" stroke-miterlimit="79.8403193612775"/>
     <path d="M 22.969,26.752 L 17.73,26.752" fill="none" stroke-width="1.974" stroke-linejoin="miter" stroke-linecap="round" stroke-miterlimit="79.8403193612775"/>
    </g>
   </g>
  </g>
 </g>
</svg>
