<?xml version="1.0" standalone="no"?>
<!DOCTYPE svg PUBLIC "-//W3C//DTD SVG 1.1//EN" "http://www.w3.org/Graphics/SVG/1.1/DTD/svg11.dtd">
<!--Generator: Xara Designer (www.xara.com), SVG filter version: 6.0.0.4-->
<svg stroke-width="0.501" stroke-linejoin="bevel" fill-rule="evenodd" xmlns:xlink="http://www.w3.org/1999/xlink" xmlns="http://www.w3.org/2000/svg" version="1.1" overflow="visible" width="93pt" height="17.25pt" viewBox="0 0 93 17.25">
 <defs>
	</defs>
 <g id="Document" fill="none" stroke="black" font-family="Times New Roman" font-size="16" transform="scale(1 -1)">
  <g id="Spread" transform="translate(0 -17.25)">
   <g id="Layer 1">
    <g id="Group" stroke-linecap="round" stroke="none">
     <g id="Group_1">
      <g id="Group_2" fill-rule="nonzero" stroke-linejoin="round" stroke-width="0.344" fill="#4c4c4c" stroke-miterlimit="79.8403193612775">
       <path d="M 23.843,-0.001 L 23.843,17.249 L 29.555,17.249 C 29.852,17.249 30.143,17.236 30.429,17.208 C 32.431,17.023 34.158,16.191 35.616,14.712 C 37.298,13.025 38.139,10.994 38.139,8.625 C 38.139,6.239 37.298,4.208 35.616,2.535 C 33.951,0.843 31.929,-0.001 29.555,-0.001 L 23.843,-0.001 Z M 33.589,4.542 C 34.712,5.688 35.272,7.045 35.272,8.621 C 35.272,10.194 34.712,11.545 33.589,12.671 C 32.468,13.8 31.123,14.361 29.555,14.361 L 26.684,14.361 L 26.684,2.88 L 29.555,2.88 C 31.123,2.88 32.468,3.433 33.589,4.542 Z" marker-start="none" marker-end="none"/>
       <path d="M -0.015,-0.001 L 6.963,14.018 L 8.568,10.804 L 6.047,5.744 L 11.093,5.744 L 12.521,2.886 L 4.637,2.886 L 3.179,-0.001 L -0.015,-0.001 Z" marker-start="none" marker-end="none"/>
       <path d="M 43.091,14.361 L 43.091,17.249 L 54.518,17.249 L 54.518,14.361 L 45.934,14.361 L 45.934,14.361 L 43.091,14.361 Z" marker-start="none" marker-end="none"/>
       <path d="M 43.091,7.178 L 43.091,10.04 L 45.934,10.04 L 45.934,10.038 L 54.518,10.038 L 54.518,7.184 L 45.934,7.184 L 45.934,7.178 L 43.091,7.178 Z" marker-start="none" marker-end="none"/>
       <path d="M 78.72,-0.001 L 78.72,2.88 L 87.995,2.88 C 88.295,2.88 88.575,2.932 88.84,3.042 C 89.103,3.148 89.332,3.299 89.531,3.49 C 89.727,3.679 89.881,3.908 89.988,4.173 C 90.097,4.437 90.152,4.721 90.152,5.017 C 90.152,5.6 89.934,6.106 89.507,6.538 C 89.094,6.969 88.59,7.184 87.995,7.184 L 83.717,7.184 C 82.333,7.184 81.151,7.674 80.178,8.651 C 79.206,9.628 78.72,10.821 78.72,12.231 C 78.72,13.603 79.206,14.781 80.178,15.758 C 81.135,16.751 82.313,17.249 83.716,17.249 L 93.015,17.249 L 93.015,14.361 L 83.713,14.361 C 83.416,14.361 83.136,14.309 82.872,14.202 C 82.608,14.092 82.378,13.941 82.179,13.74 C 81.983,13.542 81.83,13.31 81.723,13.046 C 81.614,12.779 81.562,12.507 81.56,12.227 C 81.562,11.63 81.767,11.117 82.179,10.684 C 82.592,10.254 83.101,10.038 83.713,10.038 L 87.994,10.038 C 89.378,10.038 90.559,9.55 91.532,8.573 C 92.52,7.596 93.015,6.41 93.015,5.018 C 93.015,3.643 92.52,2.459 91.533,1.467 C 90.559,0.489 89.378,-0.001 87.995,-0.001 L 78.72,-0.001 Z" marker-start="none" marker-end="none"/>
       <path d="M 59.468,-0.001 L 59.468,2.88 L 68.747,2.88 C 69.045,2.88 69.325,2.932 69.588,3.042 C 69.851,3.148 70.083,3.299 70.282,3.49 C 70.478,3.679 70.633,3.908 70.74,4.173 C 70.845,4.437 70.9,4.721 70.9,5.017 C 70.9,5.6 70.686,6.106 70.255,6.538 C 69.843,6.969 69.339,7.184 68.747,7.184 L 64.467,7.184 C 63.082,7.184 61.903,7.674 60.929,8.651 C 59.955,9.628 59.468,10.821 59.468,12.231 C 59.468,13.603 59.955,14.781 60.929,15.758 C 61.885,16.751 63.064,17.249 64.464,17.249 L 73.764,17.249 L 73.764,14.361 L 64.464,14.361 C 64.168,14.361 63.886,14.309 63.622,14.202 C 63.357,14.092 63.126,13.941 62.93,13.74 C 62.733,13.542 62.579,13.31 62.472,13.046 C 62.366,12.779 62.311,12.507 62.31,12.227 C 62.311,11.63 62.518,11.117 62.93,10.684 C 63.343,10.254 63.854,10.038 64.464,10.038 L 68.743,10.038 C 70.129,10.038 71.307,9.55 72.28,8.573 C 73.272,7.596 73.764,6.41 73.764,5.018 C 73.764,3.643 73.272,2.459 72.284,1.467 C 71.308,0.489 70.13,-0.001 68.744,-0.001 L 59.468,-0.001 Z" marker-start="none" marker-end="none"/>
       <path d="M 43.091,-0.001 L 43.091,2.876 L 49.031,2.876 L 49.031,2.88 L 54.518,2.88 L 54.518,-0.001 L 43.091,-0.001 Z" marker-start="none" marker-end="none"/>
      </g>
      <path d="M 10.286,13.804 L 8.571,17.249 L 6.963,14.018 L 6.961,14.021 L 8.571,17.25 L 10.286,13.804 Z" fill="#ffffff" stroke-width="0.723" stroke-linejoin="miter" marker-start="none" marker-end="none" stroke-miterlimit="79.8403193612775"/>
      <path d="M 10.29,7.352 L 8.568,10.804 L 8.571,10.81 L 10.29,7.352 Z" fill="#ffffff" stroke-width="0.723" stroke-linejoin="miter" marker-start="none" marker-end="none" stroke-miterlimit="79.8403193612775"/>
      <path d="M 13.962,-0.001 L 12.521,2.886 L 12.527,2.886 L 13.961,-0.001 L 17.15,-0.001 L 17.15,-0.001 L 13.962,-0.001 Z" fill="#ffffff" stroke-width="0.723" stroke-linejoin="miter" marker-start="none" marker-end="none" stroke-miterlimit="79.8403193612775"/>
     </g>
     <path d="M 11.931,17.25 L 20.51,-0.001 L 17.15,-0.001 L 8.581,17.243 L 11.931,17.25 Z" fill="#ffffff" stroke-width="0.241" stroke-linejoin="miter" marker-start="none" marker-end="none" stroke-miterlimit="79.8403193612775"/>
     <g id="Group_3" fill-rule="nonzero" stroke-linejoin="round" stroke-width="0.344" fill="#999999" stroke-miterlimit="79.8403193612775">
      <g id="Group_4">
       <path d="M 29.271,-0.001 L 29.271,2.88 L 29.322,2.88 L 29.322,-0.001 L 29.271,-0.001 Z M 1.768,-0.001 L 1.768,3.576 L 1.816,3.679 L 1.816,-0.001 L 1.768,-0.001 Z M 10.936,2.886 L 10.936,4.102 L 2.029,4.102 L 2.052,4.153 L 10.936,4.153 L 10.936,5.744 L 10.987,5.744 L 10.987,4.153 L 11.888,4.153 L 11.914,4.102 L 10.987,4.102 L 10.987,2.886 L 10.936,2.886 Z M 23.844,4.102 L 23.844,4.153 L 26.686,4.153 L 26.686,4.102 L 23.844,4.102 Z M 33.16,4.153 L 36.912,4.153 C 36.902,4.135 36.893,4.121 36.881,4.102 L 33.097,4.102 C 33.118,4.119 33.139,4.135 33.16,4.153 Z M 23.844,13.34 L 23.844,13.391 L 26.686,13.391 L 26.686,13.34 L 23.844,13.34 Z M 32.737,13.391 L 36.712,13.391 C 36.726,13.376 36.736,13.356 36.748,13.34 L 32.807,13.34 C 32.785,13.356 32.76,13.376 32.737,13.391 Z M 29.271,14.361 L 29.271,17.249 L 29.322,17.249 L 29.322,14.361 L 29.271,14.361 Z" marker-start="none" marker-end="none"/>
       <path d="M 84.282,-0.001 L 84.282,2.88 L 84.331,2.88 L 84.331,-0.001 L 84.282,-0.001 Z M 89.983,4.153 L 92.948,4.153 C 92.945,4.135 92.943,4.121 92.939,4.102 L 89.96,4.102 C 89.968,4.121 89.975,4.135 89.983,4.153 Z M 84.282,7.184 L 84.282,10.038 L 84.331,10.038 L 84.331,7.184 L 84.282,7.184 Z M 78.848,13.391 L 81.9,13.391 C 81.889,13.376 81.879,13.357 81.871,13.34 L 78.834,13.34 C 78.837,13.356 78.842,13.373 78.848,13.391 Z M 84.282,14.361 L 84.282,17.249 L 84.331,17.249 L 84.331,14.361 L 84.282,14.361 Z" marker-start="none" marker-end="none"/>
       <path d="M 65.946,-0.001 L 65.946,2.88 L 65.995,2.88 L 65.995,-0.001 L 65.946,-0.001 Z M 70.733,4.153 L 73.696,4.153 C 73.693,4.135 73.692,4.121 73.689,4.102 L 70.71,4.102 C 70.719,4.121 70.724,4.135 70.733,4.153 Z M 65.946,7.184 L 65.946,10.038 L 65.995,10.038 L 65.995,7.184 L 65.946,7.184 Z M 59.596,13.391 L 62.649,13.391 C 62.639,13.376 62.632,13.357 62.619,13.34 L 59.584,13.34 C 59.589,13.356 59.59,13.373 59.596,13.391 Z M 65.946,14.361 L 65.946,17.249 L 65.995,17.249 L 65.995,14.361 L 65.946,14.361 Z" marker-start="none" marker-end="none"/>
       <path d="M 47.609,14.361 L 47.609,17.249 L 47.656,17.249 L 47.656,14.361 L 47.609,14.361 Z" marker-start="none" marker-end="none"/>
       <path d="M 47.609,-0.001 L 47.609,2.876 L 47.656,2.876 L 47.656,-0.001 L 47.609,-0.001 Z M 47.609,7.184 L 47.609,10.038 L 47.656,10.038 L 47.656,7.184 L 47.609,7.184 Z" marker-start="none" marker-end="none"/>
      </g>
     </g>
     <g id="Group_5" fill-rule="nonzero" stroke-linejoin="round" stroke-width="0.125" fill="#7f7f7f" stroke-miterlimit="79.8403193612775">
      <g id="Group_6">
       <path d="M 29.219,0 L 29.219,2.884 L 29.429,2.884 L 29.429,0 L 29.219,0 Z M 23.852,3.978 L 23.852,4.186 L 26.695,4.186 L 26.695,3.978 L 23.852,3.978 Z M 33.206,4.186 L 36.943,4.186 C 36.898,4.114 36.855,4.046 36.808,3.978 L 32.94,3.978 C 33.031,4.043 33.119,4.113 33.206,4.186 Z M 23.852,13.242 L 23.852,13.453 L 26.695,13.453 L 26.695,13.242 L 23.852,13.242 Z M 32.661,13.453 L 36.683,13.453 C 36.731,13.382 36.778,13.314 36.823,13.242 L 32.953,13.242 C 32.857,13.315 32.759,13.386 32.661,13.453 Z M 29.219,14.363 L 29.219,17.25 L 29.429,17.25 L 29.429,14.363 L 29.219,14.363 Z" marker-start="none" marker-end="none"/>
       <path d="M 1.708,0 L 1.708,3.44 L 1.915,3.86 L 1.915,0 L 1.708,0 Z M 10.88,2.889 L 10.88,3.978 L 1.973,3.978 L 2.08,4.186 L 10.88,4.186 L 10.88,5.745 L 11.088,5.745 L 11.088,4.186 L 11.882,4.186 L 11.984,3.978 L 11.088,3.978 L 11.088,2.889 L 10.88,2.889 Z M 6.584,13.242 L 6.69,13.453 L 7.255,13.453 L 7.361,13.242 L 6.584,13.242 Z" marker-start="none" marker-end="none"/>
       <path d="M 47.558,14.363 L 47.558,17.25 L 47.771,17.25 L 47.771,14.363 L 47.558,14.363 Z" marker-start="none" marker-end="none"/>
       <path d="M 47.558,7.187 L 47.558,10.04 L 47.771,10.04 L 47.771,7.187 L 47.558,7.187 Z" marker-start="none" marker-end="none"/>
       <path d="M 84.239,0 L 84.239,2.884 L 84.455,2.884 L 84.455,0 L 84.239,0 Z M 90.001,4.174 C 90.001,4.177 90.004,4.182 90.004,4.186 L 92.961,4.186 C 92.952,4.114 92.937,4.046 92.923,3.978 L 89.907,3.978 C 89.94,4.04 89.972,4.107 90.001,4.174 Z M 84.239,7.187 L 84.239,10.04 L 84.455,10.04 L 84.455,7.187 L 84.239,7.187 Z M 78.871,13.453 L 81.948,13.453 C 81.901,13.383 81.86,13.314 81.822,13.242 L 78.824,13.242 C 78.836,13.314 78.851,13.382 78.871,13.453 Z M 84.239,14.363 L 84.239,17.25 L 84.455,17.25 L 84.455,14.363 L 84.239,14.363 Z" marker-start="none" marker-end="none"/>
       <path d="M 65.9,0 L 65.9,2.884 L 66.112,2.884 L 66.112,0 L 65.9,0 Z M 70.749,4.174 C 70.75,4.177 70.752,4.182 70.754,4.186 L 73.71,4.186 C 73.7,4.114 73.685,4.046 73.674,3.978 L 70.657,3.978 C 70.691,4.04 70.721,4.107 70.749,4.174 Z M 65.9,7.187 L 65.9,10.04 L 66.112,10.04 L 66.112,7.187 L 65.9,7.187 Z M 59.619,13.453 L 62.699,13.453 C 62.652,13.383 62.611,13.314 62.574,13.242 L 59.575,13.242 C 59.588,13.314 59.601,13.382 59.619,13.453 Z M 65.9,14.363 L 65.9,17.25 L 66.112,17.25 L 66.112,14.363 L 65.9,14.363 Z" marker-start="none" marker-end="none"/>
       <path d="M 47.558,0 L 47.558,2.88 L 47.771,2.88 L 47.771,0 L 47.558,0 Z" marker-start="none" marker-end="none"/>
      </g>
     </g>
    </g>
   </g>
  </g>
 </g>
</svg>
